{"title":"Z Nation S01E06 1080p WEBRip x264-xRed","uid":11243886,"size":1491253368,"categoryP":"video","categoryS":"hd___tv_shows","magnet":"?xt=urn:btih:2741cd57663ded27028b1b93f3beb7713e15168c&amp;dn=Z+Nation+S01E06+1080p+WEBRip+x264-xRed&amp;tr=udp%3A%2F%2Ftracker.openbittorrent.com%3A80&amp;tr=udp%3A%2F%2Fopen.demonii.com%3A1337&amp;tr=udp%3A%2F%2Ftracker.coppersurfer.tk%3A6969&amp;tr=udp%3A%2F%2Fexodus.desync.com%3A6969","seeders":0,"leechers":3,"uploader":"xredm","files":4,"time":1413706575,"description":"Encoded by xRed of www . xRedMedia . com\n\nIf in doubt, check the torrent @ KickAss [ VUL @ KickAss ]\n\nPlease Seed As Much As You Can!\n\nEncoders Note:\nI need your help in funding my SeedBox. If you have spares that you can share, [b]please donate via BitCoin @ 1EdjqFaZtSYVWhWRnYVvjP9qRsh7si1UB4[/b]\nAll Funds will go to the SeedBox\n\n[code][/code]\n\nEncoders Note:\nI need your help in funding my SeedBox. If you have spares that you can share, [b]please donate via BitCoin @ 1EdjqFaZtSYVWhWRnYVvjP9qRsh7si1UB4[/b]\nAll Funds will go to the SeedBox\n\n[code]Video\nID                                       : 1\nFormat                                   : AVC\nFormat/Info                              : Advanced Video Codec\nFormat profile                           : &lt;a class=&quot;__cf_email__&quot; href=&quot;/cdn-cgi/l/email-protection&quot; data-cfemail=&quot;1951707e7159552d3728&quot;&gt;[email&amp;#160;protected]&lt;/a&gt;&lt;script cf-hash='f9e31' type=&quot;text/javascript&quot;&gt;\n/* &lt;![CDATA[ */!function(){try{var t=&quot;currentScript&quot;in document?document.currentScript:function(){for(var t=document.getElementsByTagName(&quot;script&quot;),e=t.length;e--;)if(t[e].getAttribute(&quot;cf-hash&quot;))return t[e]}();if(t&amp;&amp;t.previousSibling){var e,r,n,i,c=t.previousSibling,a=c.getAttribute(&quot;data-cfemail&quot;);if(a){for(e=&quot;&quot;,r=parseInt(a.substr(0,2),16),n=2;a.length-n;n+=2)i=parseInt(a.substr(n,2),16)^r,e+=String.fromCharCode(i);e=document.createTextNode(e),c.parentNode.replaceChild(e,c)}}}catch(u){}}();/* ]]&gt; */&lt;/script&gt;\nFormat settings, CABAC                   : Yes\nFormat settings, ReFrames                : 4 frames\nCodec ID                                 : avc1\nCodec ID/Info                            : Advanced Video Coding\nDuration                                 : 43mn 1s\nBit rate                                 : 4 448 Kbps\nWidth                                    : 1 920 pixels\nHeight                                   : 1 080 pixels\nDisplay aspect ratio                     : 16:9\nFrame rate mode                          : Variable\nFrame rate                               : 23.976 fps\nColor space                              : YUV\nChroma subsampling                       : 4:2:0\nBit depth                                : 8 bits\nScan type                                : Progressive\nBits/(Pixel*Frame)                       : 0.089\nStream size                              : 1.34 GiB (96%)\nWriting library                          : x264 core 142 r2409+42 04be48a tMod [8-bit@4:2:0 X86_64]\n\nAudio\nID                                       : 2\nFormat                                   : AAC\nFormat/Info                              : Advanced Audio Codec\nFormat profile                           : LC\nCodec ID                                 : 40\nDuration                                 : 43mn 1s\nBit rate mode                            : Constant\nBit rate                                 : 164 Kbps\nChannel(s)                               : 2 channels\nChannel(s)_Original                      : 6 channels\nChannel positions                        : Front: L C R, Side: L R, LFE\nSampling rate                            : 48.0 KHz\nCompression mode                         : Lossy\nStream size                              : 50.6 MiB (4%)\nLanguage                                 : English\n\n[/code]","torrent":{"xt":"urn:btih:2741cd57663ded27028b1b93f3beb7713e15168c","amp;dn":"Z+Nation+S01E06+1080p+WEBRip+x264-xRed","amp;tr":["udp%3A%2F%2Ftracker.openbittorrent.com%3A80","udp%3A%2F%2Fopen.demonii.com%3A1337","udp%3A%2F%2Ftracker.coppersurfer.tk%3A6969","udp%3A%2F%2Fexodus.desync.com%3A6969"],"infoHash":"2741cd57663ded27028b1b93f3beb7713e15168c","infoHashBuffer":{"type":"Buffer","data":[39,65,205,87,102,61,237,39,2,139,27,147,243,190,183,113,62,21,22,140]},"announce":[],"urlList":[]}}